<?xml version="1.0" standalone="no"?><!DOCTYPE svg PUBLIC "-//W3C//DTD SVG 1.1//EN" "http://www.w3.org/Graphics/SVG/1.1/DTD/svg11.dtd"><svg t="1680057313091" class="icon" viewBox="0 0 1024 1024" version="1.1" xmlns="http://www.w3.org/2000/svg" p-id="7301" xmlns:xlink="http://www.w3.org/1999/xlink" width="200" height="200"><path d="M448 320m-160 0a160 160 0 1 0 320 0 160 160 0 1 0-320 0Z" fill="#FAFAFA" p-id="7302"></path><path d="M448 512C339.2 512 256 428.8 256 320s83.2-192 192-192 192 83.2 192 192-83.2 192-192 192z m0-320c-70.4 0-128 57.6-128 128s57.6 128 128 128 128-57.6 128-128-57.6-128-128-128z" p-id="7303"></path><path d="M755.2 729.6c19.2 32 12.8 64-12.8 89.6-25.6 25.6-64 44.8-108.8 44.8H256c-44.8 0-83.2-19.2-108.8-44.8-19.2-25.6-25.6-57.6-12.8-89.6 64-108.8 179.2-185.6 313.6-185.6s249.6 76.8 307.2 185.6z" fill="#55BBFF" p-id="7304"></path><path d="M640 896H256c-51.2 0-102.4-19.2-134.4-57.6-32-38.4-38.4-83.2-12.8-128C179.2 588.8 307.2 512 448 512c140.8 0 268.8 76.8 339.2 198.4 25.6 44.8 19.2 89.6-12.8 128-32 38.4-83.2 57.6-134.4 57.6zM448 576c-115.2 0-224 64-281.6 166.4-12.8 19.2-6.4 38.4 6.4 57.6 19.2 19.2 51.2 32 83.2 32h384c32 0 64-12.8 83.2-32 12.8-19.2 19.2-32 6.4-57.6C672 640 563.2 576 448 576zM992 256H896V160c0-19.2-12.8-32-32-32s-32 12.8-32 32V256h-96c-19.2 0-32 12.8-32 32s12.8 32 32 32H832v96c0 19.2 12.8 32 32 32s32-12.8 32-32V320h96c19.2 0 32-12.8 32-32s-12.8-32-32-32z" p-id="7305"></path></svg>